<?xml version="1.0" encoding="UTF-8"?>
<!DOCTYPE svg PUBLIC "-//W3C//DTD SVG 1.1//EN" "http://www.w3.org/Graphics/SVG/1.1/DTD/svg11.dtd">
<!-- Creator: CorelDRAW 2018 (64-Bit) -->
<svg xmlns="http://www.w3.org/2000/svg" xml:space="preserve" width="3.6735mm" height="2.9266mm" version="1.1" style="shape-rendering:geometricPrecision; text-rendering:geometricPrecision; image-rendering:optimizeQuality; fill-rule:evenodd; clip-rule:evenodd"
viewBox="0 0 7.01 5.58"
 xmlns:xlink="http://www.w3.org/1999/xlink">
 <defs>
  <style type="text/css">
   <![CDATA[
    .fil1 {fill:#223C7B}
    .fil0 {fill:#F8F8F8}
   ]]>
  </style>
 </defs>
 <g id="Слой_x0020_1">
  <metadata id="CorelCorpID_0Corel-Layer"/>
  <g id="_502411419216">
   <path class="fil0" d="M0.09 3.53c0.02,0.7 0.03,1.06 0.05,1.76 0.8,-0.55 1.2,-0.55 2,-0.45 -0.01,-0.68 -0.01,-1.03 -0.02,-1.71 -0.81,-0.12 -1.22,-0.14 -2.03,0.39z"/>
   <path class="fil0" d="M3.39 2.18c1.43,0.47 2.14,0.98 3.57,0.08 0.02,-0.63 0.03,-0.94 0.05,-1.56 -1.45,0.87 -2.17,0.34 -3.62,-0.18 0,0.67 0,1 0,1.67z"/>
   <path class="fil0" d="M2.08 0.11c-0.83,-0.17 -1.25,-0.2 -2.08,0.3 0.02,0.7 0.03,1.06 0.05,1.76 0.82,-0.52 1.23,-0.5 2.05,-0.35 -0.01,-0.68 -0.01,-1.02 -0.02,-1.71z"/>
   <path class="fil0" d="M3.39 5.12c1.39,0.39 2.09,0.85 3.48,-0.1 0.02,-0.63 0.03,-0.94 0.05,-1.56 -1.41,0.92 -2.12,0.44 -3.53,-0 0,0.67 0,1 0,1.67z"/>
   <path class="fil1" d="M3.39 2.18c-0,-0.67 -0,-1 -0,-1.67 -0.52,-0.19 -0.78,-0.29 -1.3,-0.4 0.01,0.68 0.01,1.03 0.02,1.71 -0.82,-0.14 -1.23,-0.17 -2.05,0.35 0.02,0.54 0.02,0.81 0.04,1.35 0.81,-0.53 1.22,-0.52 2.03,-0.39 0.01,0.68 0.01,1.03 0.02,1.71 0.5,0.06 0.75,0.14 1.25,0.28 -0,-0.67 -0,-1 -0,-1.67 1.41,0.44 2.12,0.92 3.53,0 0.02,-0.48 0.02,-0.72 0.04,-1.2 -1.43,0.9 -2.14,0.39 -3.57,-0.08z"/>
  </g>
 </g>
</svg>
