<?xml version="1.0" encoding="UTF-8"?>
<!DOCTYPE svg PUBLIC "-//W3C//DTD SVG 1.1//EN" "http://www.w3.org/Graphics/SVG/1.1/DTD/svg11.dtd">
<!-- Creator: CorelDRAW 2018 (64-Bit) -->
<svg xmlns="http://www.w3.org/2000/svg" xml:space="preserve" width="7.8837mm" height="7.4002mm" version="1.1" style="shape-rendering:geometricPrecision; text-rendering:geometricPrecision; image-rendering:optimizeQuality; fill-rule:evenodd; clip-rule:evenodd"
viewBox="0 0 41.13 38.61"
 xmlns:xlink="http://www.w3.org/1999/xlink">
 <defs>
  <style type="text/css">
   <![CDATA[
    .fil0 {fill:#BE79DF}
   ]]>
  </style>
 </defs>
 <g id="Слой_x0020_1">
  <metadata id="CorelCorpID_0Corel-Layer"/>
  <path class="fil0" d="M40.65 14.44l-8.7 -6.63 0 -5.52c0,-0.36 -0.14,-0.66 -0.31,-0.66l-2.62 0c-0.17,0 -0.31,0.29 -0.31,0.66l0 3.06 -5.76 -4.39c-0.65,-0.62 -1.49,-0.95 -2.39,-0.95 -0.9,0 -1.74,0.34 -2.39,0.95l-17.69 13.49c-0.54,0.41 -0.64,1.18 -0.23,1.73 0.24,0.32 0.61,0.48 0.98,0.48 0.26,0 0.52,-0.08 0.75,-0.25l2.53 -1.93 0 20.73c0,1.88 1.63,3.4 3.63,3.4l25.11 0c2,0 3.63,-1.53 3.63,-3.4l0 -20.56 2.29 1.75c0.54,0.41 1.31,0.31 1.72,-0.23 0.41,-0.54 0.31,-1.31 -0.23,-1.73zm-15.85 21.71l-7.86 0 0 -8.76c0,-0.2 0.11,-0.33 0.19,-0.33l7.49 -0c0.07,0 0.19,0.13 0.19,0.33l0 8.76zm9.61 -0.94c0,0.52 -0.52,0.94 -1.16,0.94l-7.39 0 0 -8.76c0,-0.77 -0.56,-1.39 -1.24,-1.39l-7.49 -0c-0.69,0 -1.24,0.62 -1.24,1.39l0 8.76 -7.75 0c-0.63,0 -1.16,-0.43 -1.16,-0.94l0 -22.61 12.76 -9.73c0.04,-0.03 0.09,-0.07 0.12,-0.11 0.19,-0.19 0.44,-0.29 0.71,-0.29 0.27,0 0.52,0.1 0.71,0.3 0.04,0.04 0.08,0.08 0.13,0.11l13 9.91 0 22.43z"/>
 </g>
</svg>
