<?xml version="1.0" encoding="UTF-8"?>
<!DOCTYPE svg PUBLIC "-//W3C//DTD SVG 1.1//EN" "http://www.w3.org/Graphics/SVG/1.1/DTD/svg11.dtd">
<!-- Creator: CorelDRAW 2018 (64-Bit) -->
<svg xmlns="http://www.w3.org/2000/svg" xml:space="preserve" width="26.5659mm" height="25.0328mm" version="1.1" style="shape-rendering:geometricPrecision; text-rendering:geometricPrecision; image-rendering:optimizeQuality; fill-rule:evenodd; clip-rule:evenodd"
viewBox="0 0 403.51 380.22"
 xmlns:xlink="http://www.w3.org/1999/xlink"
 enable-background="new 0 0 1800 1800">
 <defs>
  <style type="text/css">
   <![CDATA[
    .fil0 {fill:white}
   ]]>
  </style>
 </defs>
 <g id="Слой_x0020_1">
  <metadata id="CorelCorpID_0Corel-Layer"/>
  <g id="_750467866512">
   <g>
    <path class="fil0" d="M201.78 0c-74.12,0 -134.43,60.3 -134.43,134.43 0,49.4 26.58,94.15 69.67,117.83l0 34.38 -0.03 0 0 27.47 -0.04 0 0 41.67 38.84 0c0.81,13.61 12.13,24.44 25.94,24.44 13.81,0 25.13,-10.83 25.94,-24.44l38.82 0 0 -27.47 0.04 0 0 -41.67 -0 0 0 -34.38c43.09,-23.68 69.67,-68.43 69.67,-117.83 0,-74.12 -60.3,-134.43 -134.43,-134.43zm-50.59 300.84l101.15 0 0 13.27 -101.15 0 0 -13.27zm50.55 65.19c-6.62,0 -10.94,-5.06 -11.67,-10.24l23.35 0c-0.76,5.77 -5.7,10.24 -11.68,10.24zm50.56 -24.44l-101.15 0 0 -13.27 101.15 0 0 13.27zm3.92 -99.93l-3.88 1.97 0 42.62 -43.48 0 0 -104.91 42.11 -42.11c2.77,-2.77 2.77,-7.27 -0,-10.04 -2.77,-2.77 -7.27,-2.77 -10.04,0l-39.17 39.17 -39.17 -39.17c-2.77,-2.77 -7.27,-2.77 -10.04,-0 -2.77,2.77 -2.77,7.27 -0,10.04l42.11 42.11 0 104.91 -43.43 0 0 -42.62 -3.88 -1.97c-40.58,-20.64 -65.79,-61.73 -65.79,-107.22 0,-66.3 53.93,-120.23 120.23,-120.23 66.29,0 120.23,53.93 120.23,120.23 0,45.49 -25.21,86.58 -65.79,107.22z"/>
    <path class="fil0" d="M239.24 43.04c-3.92,0 -7.1,3.18 -7.1,7.1 0,3.92 3.18,7.1 7.1,7.1 11.17,0 37.34,13.41 37.34,39.43 0,3.92 3.18,7.1 7.1,7.1 3.92,0 7.1,-3.18 7.1,-7.1 0,-35.21 -33.55,-53.63 -51.54,-53.63z"/>
    <path class="fil0" d="M46.39 148.02c0,-3.92 -3.18,-7.1 -7.1,-7.1l-32.19 0c-3.92,0 -7.1,3.18 -7.1,7.1 0,3.92 3.18,7.1 7.1,7.1l32.19 0c3.92,0 7.1,-3.18 7.1,-7.1z"/>
    <path class="fil0" d="M48.82 55.16c1.39,1.39 3.2,2.08 5.02,2.08 1.82,0 3.63,-0.69 5.02,-2.08 2.77,-2.77 2.77,-7.27 0,-10.04l-22.76 -22.76c-2.77,-2.77 -7.27,-2.77 -10.04,-0 -2.77,2.77 -2.77,7.27 -0,10.04l22.76 22.76z"/>
    <path class="fil0" d="M48.82 240.87l-22.76 22.76c-2.77,2.77 -2.77,7.27 -0,10.04 1.39,1.39 3.2,2.08 5.02,2.08 1.82,0 3.63,-0.69 5.02,-2.08l22.76 -22.76c2.77,-2.77 2.77,-7.27 0,-10.04 -2.77,-2.77 -7.27,-2.77 -10.04,-0z"/>
    <path class="fil0" d="M396.41 140.92l-32.19 0c-3.92,0 -7.1,3.18 -7.1,7.1 0,3.92 3.18,7.1 7.1,7.1l32.19 0c3.92,0 7.1,-3.18 7.1,-7.1 0,-3.92 -3.18,-7.1 -7.1,-7.1z"/>
    <path class="fil0" d="M349.66 57.24c1.82,0 3.63,-0.69 5.02,-2.08l22.76 -22.76c2.77,-2.77 2.77,-7.27 0,-10.04 -2.77,-2.77 -7.27,-2.77 -10.04,0l-22.76 22.76c-2.77,2.77 -2.77,7.27 0,10.04 1.39,1.39 3.2,2.08 5.02,2.08z"/>
    <path class="fil0" d="M354.68 240.87c-2.77,-2.77 -7.27,-2.77 -10.04,0 -2.77,2.77 -2.77,7.26 0,10.04l22.76 22.76c1.39,1.39 3.2,2.08 5.02,2.08 1.82,0 3.63,-0.69 5.02,-2.08 2.77,-2.77 2.77,-7.27 -0,-10.04l-22.76 -22.76z"/>
   </g>
   <g>
   </g>
   <g>
   </g>
   <g>
   </g>
   <g>
   </g>
   <g>
   </g>
   <g>
   </g>
  </g>
 </g>
</svg>
