<?xml version="1.0" encoding="UTF-8"?>
<!DOCTYPE svg PUBLIC "-//W3C//DTD SVG 1.1//EN" "http://www.w3.org/Graphics/SVG/1.1/DTD/svg11.dtd">
<!-- Creator: CorelDRAW 2018 (64-Bit) -->
<svg xmlns="http://www.w3.org/2000/svg" xml:space="preserve" width="26.5659mm" height="25.0328mm" version="1.1" style="shape-rendering:geometricPrecision; text-rendering:geometricPrecision; image-rendering:optimizeQuality; fill-rule:evenodd; clip-rule:evenodd"
viewBox="0 0 747.14 704.02"
 xmlns:xlink="http://www.w3.org/1999/xlink"
 enable-background="new 0 0 1800 1800">
 <defs>
  <style type="text/css">
   <![CDATA[
    .fil0 {fill:#FFEEB5}
   ]]>
  </style>
 </defs>
 <g id="Слой_x0020_1">
  <metadata id="CorelCorpID_0Corel-Layer"/>
  <g id="_750467854800">
   <g>
    <path class="fil0" d="M373.62 0c-137.25,0 -248.91,111.66 -248.91,248.91 0,91.47 49.22,174.32 129.01,218.17l0 63.66 -0.05 0 0 50.87 -0.07 0 0 77.16 71.92 0c1.49,25.21 22.46,45.26 48.03,45.26 25.57,0 46.54,-20.05 48.03,-45.26l71.88 0 0 -50.87 0.07 0 0 -77.16 -0.01 0 0 -63.66c79.79,-43.85 129.01,-126.71 129.01,-218.17 0,-137.25 -111.66,-248.91 -248.91,-248.91zm-93.67 557.03l187.29 0 0 24.58 -187.29 0 0 -24.58zm93.6 120.7c-12.26,0 -20.25,-9.38 -21.61,-18.97l43.23 0c-1.41,10.69 -10.56,18.97 -21.62,18.97zm93.62 -45.26l-187.29 0 0 -24.58 187.29 0 0 24.58zm7.25 -185.03l-7.19 3.66 0 78.91 -80.52 0 0 -194.25 77.97 -77.98c5.13,-5.13 5.13,-13.45 -0,-18.59 -5.13,-5.13 -13.45,-5.13 -18.59,0l-72.53 72.53 -72.53 -72.53c-5.13,-5.13 -13.46,-5.14 -18.59,-0 -5.14,5.14 -5.14,13.46 -0,18.59l77.97 77.98 0 194.25 -80.42 0 0 -78.91 -7.19 -3.66c-75.14,-38.23 -121.82,-114.3 -121.82,-198.54 0,-122.76 99.87,-222.62 222.62,-222.62 122.75,0 222.62,99.87 222.62,222.62 0,84.23 -46.68,160.31 -121.82,198.54z"/>
    <path class="fil0" d="M442.99 79.7c-7.26,0 -13.15,5.89 -13.15,13.15 0,7.26 5.89,13.15 13.15,13.15 20.68,0 69.14,24.84 69.14,73.01 0,7.26 5.88,13.15 13.14,13.15 7.26,0 13.15,-5.88 13.15,-13.15 0,-65.19 -62.12,-99.3 -95.43,-99.3z"/>
    <path class="fil0" d="M85.89 274.07c0,-7.26 -5.88,-13.14 -13.15,-13.14l-59.6 0c-7.26,0 -13.15,5.88 -13.15,13.14 0,7.26 5.88,13.15 13.15,13.15l59.6 0c7.26,0 13.15,-5.88 13.15,-13.15z"/>
    <path class="fil0" d="M90.4 102.14c2.57,2.57 5.93,3.85 9.3,3.85 3.36,0 6.73,-1.28 9.29,-3.85 5.14,-5.13 5.14,-13.45 0,-18.59l-42.14 -42.14c-5.13,-5.13 -13.45,-5.13 -18.59,-0 -5.14,5.14 -5.14,13.46 -0,18.59l42.14 42.14z"/>
    <path class="fil0" d="M90.4 446.01l-42.14 42.14c-5.14,5.13 -5.14,13.45 -0,18.59 2.57,2.57 5.93,3.85 9.3,3.85 3.36,0 6.73,-1.28 9.3,-3.85l42.14 -42.14c5.13,-5.14 5.13,-13.46 0,-18.59 -5.13,-5.14 -13.45,-5.14 -18.59,-0.01z"/>
    <path class="fil0" d="M734 260.93l-59.6 0c-7.26,0 -13.15,5.88 -13.15,13.14 0,7.26 5.88,13.15 13.15,13.15l59.6 0c7.26,0 13.14,-5.88 13.14,-13.15 0,-7.26 -5.88,-13.14 -13.14,-13.14z"/>
    <path class="fil0" d="M647.44 105.99c3.36,0 6.73,-1.28 9.3,-3.85l42.14 -42.14c5.13,-5.13 5.13,-13.45 0,-18.59 -5.14,-5.13 -13.46,-5.13 -18.59,0l-42.14 42.14c-5.13,5.14 -5.13,13.46 0,18.59 2.57,2.57 5.93,3.85 9.3,3.85z"/>
    <path class="fil0" d="M656.74 446.01c-5.13,-5.13 -13.45,-5.13 -18.59,0.01 -5.13,5.13 -5.13,13.45 0,18.59l42.14 42.14c2.56,2.57 5.93,3.85 9.3,3.85 3.36,0 6.73,-1.28 9.3,-3.85 5.13,-5.14 5.13,-13.46 -0,-18.59l-42.14 -42.14z"/>
   </g>
   <g>
   </g>
   <g>
   </g>
   <g>
   </g>
   <g>
   </g>
   <g>
   </g>
   <g>
   </g>
  </g>
 </g>
</svg>
