<?xml version="1.0" encoding="UTF-8"?>
<!DOCTYPE svg PUBLIC "-//W3C//DTD SVG 1.1//EN" "http://www.w3.org/Graphics/SVG/1.1/DTD/svg11.dtd">
<!-- Creator: CorelDRAW 2018 (64-Bit) -->
<svg xmlns="http://www.w3.org/2000/svg" xml:space="preserve" width="3.578mm" height="3.578mm" version="1.1" style="shape-rendering:geometricPrecision; text-rendering:geometricPrecision; image-rendering:optimizeQuality; fill-rule:evenodd; clip-rule:evenodd"
viewBox="0 0 6.6 6.6"
 xmlns:xlink="http://www.w3.org/1999/xlink">
 <defs>
  <style type="text/css">
   <![CDATA[
    .fil0 {fill:#DDABEC}
   ]]>
  </style>
 </defs>
 <g id="Слой_x0020_1">
  <metadata id="CorelCorpID_0Corel-Layer"/>
  <path class="fil0" d="M3.3 0c-1.82,0 -3.3,1.48 -3.3,3.3 0,1.82 1.48,3.3 3.3,3.3 1.82,0 3.3,-1.48 3.3,-3.3 -0,-1.82 -1.48,-3.3 -3.3,-3.3zm0.41 6.1c-0.09,0.01 -0.18,0.02 -0.27,0.03l0 -1.26 1.04 -0c-0.18,0.58 -0.46,1.03 -0.77,1.23zm-1.58 -1.23l1.03 0 0 1.26c-0.09,-0 -0.17,-0.01 -0.26,-0.03 -0.32,-0.2 -0.6,-0.65 -0.78,-1.23zm-1.65 -1.43l1.15 0c0.01,0.41 0.06,0.79 0.13,1.15l-0.97 0c-0.18,-0.35 -0.29,-0.74 -0.31,-1.15zm2.43 -2.94c0.08,-0.01 0.17,-0.02 0.26,-0.03l0 1.28 -1.04 0c0.18,-0.59 0.46,-1.05 0.78,-1.25zm1.59 1.25l-1.05 0 0 -1.28c0.09,0 0.18,0.01 0.27,0.03 0.32,0.21 0.6,0.66 0.78,1.25zm0.08 0.28c0.08,0.35 0.13,0.73 0.14,1.13l-1.26 0 0 -1.13 1.12 0zm-1.41 0l0 1.13 -1.26 0c0.01,-0.4 0.06,-0.78 0.14,-1.13l1.12 0zm-1.54 1.13l-1.15 0c0.02,-0.4 0.13,-0.78 0.3,-1.13l0.98 0c-0.08,0.35 -0.12,0.73 -0.13,1.13zm0.28 0.28l1.26 0 0 1.15 -1.11 0c-0.08,-0.35 -0.14,-0.74 -0.15,-1.15zm1.54 1.15l0 -1.15 1.26 0c-0.01,0.41 -0.06,0.8 -0.15,1.15l-1.12 0zm1.55 -1.15l1.14 0c-0.02,0.41 -0.13,0.8 -0.31,1.15l-0.96 0c0.08,-0.35 0.13,-0.74 0.13,-1.15zm0 -0.28c-0.01,-0.4 -0.05,-0.78 -0.13,-1.13l0.97 0c0.17,0.34 0.28,0.72 0.3,1.13l-1.14 0zm0.68 -1.41l-0.88 0c-0.13,-0.45 -0.31,-0.83 -0.53,-1.11 0.58,0.21 1.07,0.6 1.41,1.11zm-3.32 -1.12c-0.22,0.28 -0.4,0.67 -0.53,1.12l-0.89 0c0.34,-0.51 0.83,-0.91 1.42,-1.12zm-1.4 4.23l0.88 0c0.13,0.44 0.31,0.82 0.52,1.1 -0.58,-0.21 -1.07,-0.59 -1.4,-1.1zm3.31 1.09c0.22,-0.28 0.39,-0.65 0.52,-1.09l0.87 -0c-0.33,0.5 -0.82,0.89 -1.39,1.09z"/>
 </g>
</svg>
