<?xml version="1.0" encoding="UTF-8"?>
<!DOCTYPE svg PUBLIC "-//W3C//DTD SVG 1.1//EN" "http://www.w3.org/Graphics/SVG/1.1/DTD/svg11.dtd">
<!-- Creator: CorelDRAW 2018 (64-Bit) -->
<svg xmlns="http://www.w3.org/2000/svg" xml:space="preserve" width="4.5384mm" height="5.4281mm" version="1.1" style="shape-rendering:geometricPrecision; text-rendering:geometricPrecision; image-rendering:optimizeQuality; fill-rule:evenodd; clip-rule:evenodd"
viewBox="0 0 11.68 13.97"
 xmlns:xlink="http://www.w3.org/1999/xlink">
 <defs>
  <style type="text/css">
   <![CDATA[
    .fil0 {fill:#FEFEFE}
   ]]>
  </style>
 </defs>
 <g id="Слой_x0020_1">
  <metadata id="CorelCorpID_0Corel-Layer"/>
  <g id="_467790829024">
   <path class="fil0" d="M5.86 2.48c-3.31,-0.01 -5.85,2.47 -5.86,5.73 -0.01,3.27 2.5,5.75 5.83,5.76 3.3,0.01 5.84,-2.46 5.85,-5.71 0.02,-3.26 -2.5,-5.76 -5.82,-5.77zm-0.05 9.57c-2.19,-0.01 -3.88,-1.7 -3.86,-3.86 0.01,-2.13 1.73,-3.8 3.91,-3.79 2.18,0.01 3.88,1.71 3.87,3.86 -0.01,2.13 -1.74,3.8 -3.91,3.79z"/>
   <path class="fil0" d="M4.18 2.01c0.56,-0 1.02,-0.46 1.02,-1.01 -0,-0.55 -0.48,-1.01 -1.03,-1 -0.56,0 -1.02,0.46 -1.01,1.01 0,0.56 0.46,1 1.03,1z"/>
   <path class="fil0" d="M7.5 2.01c0.56,0 1.02,-0.44 1.03,-1 0,-0.55 -0.46,-1.01 -1.02,-1.01 -0.56,-0 -1.03,0.46 -1.03,1 -0,0.55 0.46,1.01 1.02,1.01z"/>
   <path class="fil0" d="M7.73 8.92c-0.45,0.43 -1.07,0.7 -1.89,0.7 -0.82,0 -1.44,-0.27 -1.89,-0.7 -0.06,-0.05 -0.13,-0.08 -0.2,-0.03 -0.06,0.05 -0.08,0.13 -0.03,0.2 0.51,0.71 1.2,1.25 2.12,1.25 0.91,0 1.61,-0.54 2.12,-1.25 0.05,-0.06 0.03,-0.15 -0.03,-0.2 -0.06,-0.05 -0.14,-0.02 -0.2,0.03z"/>
  </g>
 </g>
</svg>
