<?xml version="1.0" encoding="UTF-8"?>
<!DOCTYPE svg PUBLIC "-//W3C//DTD SVG 1.1//EN" "http://www.w3.org/Graphics/SVG/1.1/DTD/svg11.dtd">
<!-- Creator: CorelDRAW 2018 (64-Bit) -->
<svg xmlns="http://www.w3.org/2000/svg" xml:space="preserve" width="4.5384mm" height="5.4281mm" version="1.1" style="shape-rendering:geometricPrecision; text-rendering:geometricPrecision; image-rendering:optimizeQuality; fill-rule:evenodd; clip-rule:evenodd"
viewBox="0 0 11.8 14.12"
 xmlns:xlink="http://www.w3.org/1999/xlink">
 <defs>
  <style type="text/css">
   <![CDATA[
    .fil0 {fill:#DDABEC}
   ]]>
  </style>
 </defs>
 <g id="Слой_x0020_1">
  <metadata id="CorelCorpID_0Corel-Layer"/>
  <g id="_502412792480">
   <path class="fil0" d="M5.92 2.5c-3.35,-0.02 -5.92,2.49 -5.92,5.79 -0.01,3.3 2.53,5.81 5.89,5.82 3.34,0.01 5.9,-2.49 5.91,-5.78 0.02,-3.3 -2.53,-5.82 -5.88,-5.84zm-0.05 9.67c-2.21,-0.01 -3.92,-1.72 -3.91,-3.9 0.01,-2.15 1.75,-3.84 3.95,-3.83 2.2,0.01 3.92,1.72 3.91,3.9 -0.01,2.15 -1.76,3.84 -3.95,3.83z"/>
   <path class="fil0" d="M4.22 2.03c0.57,-0 1.03,-0.47 1.03,-1.02 -0,-0.55 -0.48,-1.02 -1.04,-1.01 -0.56,0 -1.03,0.47 -1.02,1.03 0,0.56 0.46,1.01 1.04,1.01z"/>
   <path class="fil0" d="M7.58 2.03c0.57,0 1.04,-0.45 1.04,-1.01 0,-0.56 -0.46,-1.02 -1.03,-1.02 -0.56,-0 -1.04,0.46 -1.04,1.01 -0,0.56 0.46,1.02 1.03,1.02z"/>
   <path class="fil0" d="M7.81 9.02c-0.45,0.44 -1.08,0.71 -1.91,0.71 -0.83,0 -1.46,-0.27 -1.91,-0.71 -0.06,-0.06 -0.14,-0.08 -0.2,-0.03 -0.06,0.05 -0.08,0.14 -0.03,0.2 0.51,0.71 1.21,1.26 2.14,1.26 0.92,0 1.62,-0.55 2.14,-1.26 0.05,-0.06 0.03,-0.15 -0.03,-0.2 -0.07,-0.05 -0.14,-0.02 -0.2,0.03z"/>
  </g>
 </g>
</svg>
