<?xml version="1.0" encoding="UTF-8"?>
<!DOCTYPE svg PUBLIC "-//W3C//DTD SVG 1.1//EN" "http://www.w3.org/Graphics/SVG/1.1/DTD/svg11.dtd">
<!-- Creator: CorelDRAW 2018 (64-Bit) -->
<svg xmlns="http://www.w3.org/2000/svg" xml:space="preserve" width="20.2216mm" height="8.0149mm" version="1.1" style="shape-rendering:geometricPrecision; text-rendering:geometricPrecision; image-rendering:optimizeQuality; fill-rule:evenodd; clip-rule:evenodd"
viewBox="0 0 205.21 81.34"
 xmlns:xlink="http://www.w3.org/1999/xlink">
 <defs>
  <style type="text/css">
   <![CDATA[
    .fil0 {fill:#DDABEC}
   ]]>
  </style>
 </defs>
 <g id="Слой_x0020_1">
  <metadata id="CorelCorpID_0Corel-Layer"/>
  <g id="_502412841344">
   <path class="fil0" d="M100.87 14.33c-19.18,-0.09 -33.88,14.27 -33.93,33.15 -0.05,18.91 14.49,33.29 33.72,33.35 19.12,0.06 33.78,-14.26 33.87,-33.08 0.09,-18.89 -14.47,-33.34 -33.66,-33.43zm-0.27 55.37c-12.65,-0.07 -22.44,-9.84 -22.36,-22.32 0.08,-12.34 10.03,-21.99 22.62,-21.94 12.61,0.05 22.44,9.87 22.38,22.33 -0.06,12.31 -10.05,21.99 -22.64,21.92z"/>
   <path class="fil0" d="M205.19 19.25c-0.12,-2.5 -1.59,-4.43 -3.84,-5.12 -3.91,-1.2 -7.42,1.36 -7.43,5.51 -0.03,9.3 -0.01,18.6 -0.01,27.9 0,3.98 0,7.96 0,11.94 0,5.41 -0.02,10.83 0.01,16.24 0.02,2.93 1.8,5.02 4.56,5.51 3.81,0.68 6.72,-1.92 6.72,-6.04 0.01,-17.72 0,-35.44 0,-53.16 0,-0.93 0.03,-1.85 -0.02,-2.78z"/>
   <path class="fil0" d="M91.14 11.65c3.24,-0.01 5.92,-2.67 5.9,-5.84 -0.02,-3.16 -2.76,-5.82 -5.97,-5.81 -3.23,0.02 -5.88,2.67 -5.87,5.87 0.02,3.22 2.66,5.79 5.94,5.78z"/>
   <path class="fil0" d="M110.33 11.65c3.27,0.01 5.93,-2.57 5.94,-5.78 0.02,-3.19 -2.65,-5.85 -5.88,-5.87 -3.21,-0.02 -5.94,2.64 -5.95,5.81 -0.02,3.19 2.64,5.83 5.89,5.84z"/>
   <path class="fil0" d="M62.33 14.3c-2.95,-1.2 -6.17,0.04 -7.56,2.91 -0.5,1.04 -22.01,47.1 -22.01,47.1 -7.24,-15.6 -14.5,-31.2 -21.71,-46.82 -1.1,-2.39 -2.91,-3.51 -5.1,-3.64 -3.57,0 -6.08,2.41 -5.94,5.55 0.05,1.16 0.45,2.37 0.95,3.43 5.33,11.32 22.36,47.15 25.5,53.77 0.98,2.06 2.34,3.68 4.74,4.16 3.76,0.75 6.33,-0.65 8.16,-4.49 7.72,-16.24 15.43,-32.49 23.14,-48.73 0.95,-2.01 1.99,-3.99 2.79,-6.06 1.16,-3 -0.18,-6.06 -2.96,-7.18z"/>
   <path class="fil0" d="M181.3 69.46c-8.74,-0.02 -17.47,-0.01 -26.21,-0.01l0 -9.47 -0.01 0.01c0,-0.25 0,-0.5 0,-0.75 0,-9.59 0,-19.18 0,-28.77 0,-3.61 0.02,-7.22 -0.01,-10.83 -0.02,-2.76 -1.48,-4.79 -3.87,-5.52 -3.86,-1.17 -7.39,1.35 -7.41,5.4 -0.04,9.12 -0.01,18.23 -0.01,27.35 -0,8.93 -0.01,17.86 0,26.79 0,4.08 1.76,5.81 5.92,5.81 8.21,0 16.42,0 24.64,0 2.58,-0 5.16,0.06 7.74,-0.04 3.12,-0.13 5.13,-2.66 4.67,-5.69 -0.42,-2.78 -2.29,-4.28 -5.46,-4.29z"/>
   <path class="fil0" d="M111.67 51.65c-2.58,2.5 -6.2,4.07 -10.93,4.07 -4.73,0 -8.36,-1.56 -10.93,-4.07 -0.32,-0.32 -0.78,-0.45 -1.14,-0.19 -0.37,0.26 -0.45,0.78 -0.19,1.14 2.95,4.09 6.96,7.21 12.25,7.21 5.29,0 9.29,-3.12 12.25,-7.21 0.27,-0.37 0.18,-0.88 -0.18,-1.14 -0.37,-0.27 -0.82,-0.13 -1.14,0.19z"/>
  </g>
 </g>
</svg>
